<?xml version="1.0" encoding="UTF-8"?> <svg xmlns="http://www.w3.org/2000/svg" width="68" height="68" viewBox="0 0 68 68" fill="none"> <g clip-path="url(#clip0_42_53)"> <mask id="mask0_42_53" style="mask-type:luminance" maskUnits="userSpaceOnUse" x="0" y="0" width="68" height="68"> <path d="M68 0H0V68H68V0Z" fill="white"></path> </mask> <g mask="url(#mask0_42_53)"> <path d="M68 0H0V68H68V0Z" fill="white"></path> <path d="M4.16406 38.6187V9.0708H63.8366V20.3752" stroke="black" stroke-width="1.44815" stroke-miterlimit="10"></path> <mask id="mask1_42_53" style="mask-type:luminance" maskUnits="userSpaceOnUse" x="0" y="0" width="68" height="68"> <path d="M68 0H0V68H68V0Z" fill="white"></path> </mask> <g mask="url(#mask1_42_53)"> <path d="M8.32373 47.5996H10.8498C12.6915 47.5996 14.0225 48.9672 14.0225 50.8819C14.0225 52.7966 12.7003 54.1648 10.8498 54.1648H8.32373V47.5996ZM9.39977 53.0887H10.8479C12.0971 53.0887 12.9446 52.1953 12.9446 50.885C12.9446 49.5748 12.0971 48.6813 10.8479 48.6813H9.39977V53.0887Z" fill="black"></path> <path d="M16.3555 54.1618V47.5967H20.6048V48.6727H17.4315V50.2134H20.2403V51.2895H17.4315V53.0858H20.6048V54.1618H16.3555Z" fill="black"></path> <path d="M24.0526 47.5967V53.0858H27.1806V54.1618H22.9766V47.5967H24.0526Z" fill="black"></path> <path d="M30.5272 47.5967H29.4512V54.1618H30.5272V47.5967Z" fill="black"></path> <path d="M32.5244 47.5967H33.6735L35.4604 52.4473L37.2567 47.5967H38.3963L35.9981 54.1618H34.922L32.5244 47.5967Z" fill="black"></path> <path d="M40.3936 54.1618V47.5967H44.6429V48.6727H41.4696V50.2134H44.2777V51.2895H41.4696V53.0858H44.6429V54.1618H40.3936Z" fill="black"></path> <path d="M47.0137 47.5996H49.8955C51.1082 47.5996 52.0016 48.5566 52.0016 49.8518C52.0016 50.6634 51.6188 51.3472 51.0263 51.7212L52.1596 54.1648H50.9715L50.0139 52.0952C49.9512 52.1024 49.8881 52.1053 49.825 52.104H48.0897V54.1648H47.0137V47.5996ZM48.0897 51.0279H49.7494C50.4697 51.0279 50.935 50.5633 50.935 49.8518C50.935 49.1403 50.4792 48.67 49.7582 48.67H48.0897V51.0279Z" fill="black"></path> <path d="M53.6064 47.5967H54.8103L56.4517 50.7606L58.0932 47.5967H59.2964L56.9894 51.9732V54.1618H55.9134V51.9732L53.6064 47.5967Z" fill="black"></path> <path d="M4.16406 47.5979V58.9294H63.8366V29.333" stroke="black" stroke-width="1.44815" stroke-miterlimit="10"></path> <path d="M15.6257 27.027C16.8963 27.0845 17.7505 27.4234 18.1883 28.0438C18.6261 28.6642 18.8452 29.5682 18.8456 30.7556V38.7626C18.8456 39.6945 18.7044 40.457 18.4219 41.0501C18.1586 41.6193 17.7582 42.1143 17.2564 42.4907C16.7525 42.8632 16.1749 43.124 15.5621 43.2557C14.9151 43.398 14.2545 43.4689 13.592 43.4672C12.9135 43.4706 12.237 43.3924 11.5772 43.2343C10.9689 43.0906 10.394 42.8308 9.88411 42.4693C9.3755 42.1001 8.97345 41.6032 8.71866 41.0287C8.43617 40.4217 8.29492 39.6662 8.29492 38.762V30.7556C8.29492 29.5694 8.52096 28.6655 8.97303 28.0438C9.42511 27.4222 10.2856 27.0832 11.5545 27.027V26.7751C10.8485 26.7474 10.3049 26.6133 9.92377 26.3728C9.5712 26.1605 9.28033 25.8597 9.08007 25.5001C8.89295 25.1463 8.7855 24.7558 8.76526 24.3561C8.73629 23.9323 8.72244 23.5237 8.72244 23.1277V16.6897C8.72281 16.2332 8.80822 15.7808 8.97429 15.3555C9.15167 14.9063 9.43509 14.5067 9.80037 14.1907C10.1815 13.8516 10.6829 13.5762 11.3046 13.3646C11.9262 13.1531 12.6887 13.0481 13.592 13.0498C14.4105 13.0498 15.1241 13.1548 15.7327 13.3646C16.3414 13.5745 16.8356 13.8499 17.2155 14.1907C17.5843 14.5132 17.8804 14.9102 18.0844 15.3555C18.2769 15.7762 18.3916 16.2282 18.4231 16.6897V23.1296C18.3942 23.5256 18.3658 23.9342 18.3381 24.358C18.3161 24.7548 18.2149 25.1431 18.0403 25.5001C17.8549 25.8567 17.577 26.1568 17.2357 26.369C16.868 26.6087 16.3313 26.7428 15.6257 26.7713V27.027ZM12.4058 38.4661C12.4058 38.8615 12.5258 39.1578 12.7659 39.3551C12.9967 39.5501 13.2899 39.6555 13.592 39.6523C13.7446 39.6667 13.8985 39.6496 14.0443 39.6022C14.1901 39.5547 14.3245 39.4779 14.4395 39.3765C14.6913 39.1667 14.8042 38.8632 14.7782 38.4661V29.4844C14.7782 29.118 14.6582 28.8426 14.4181 28.6583C14.1815 28.4763 13.8905 28.3794 13.592 28.3832C13.2969 28.3777 13.0077 28.4659 12.7659 28.635C12.5254 28.8029 12.4054 29.0854 12.4058 29.4825V38.4661ZM12.5317 24.1886C12.5317 24.5846 12.6375 24.8875 12.8465 25.0997C12.9422 25.1999 13.0573 25.2795 13.1849 25.3336C13.3124 25.3878 13.4497 25.4153 13.5882 25.4145C13.8401 25.4145 14.0818 25.3163 14.3085 25.1179C14.5352 24.9196 14.6473 24.6098 14.6473 24.1861V17.8766C14.6473 17.537 14.5423 17.2826 14.3324 17.1135C14.1221 16.9456 13.8598 16.8565 13.5907 16.8616C13.3294 16.8634 13.076 16.952 12.8704 17.1135C12.6446 17.2814 12.5317 17.5357 12.5317 17.8766V24.1886Z" fill="black"></path> <path d="M25.1162 37.0255C25.1162 37.3932 25.1234 37.7391 25.1376 38.0631C25.1446 38.3516 25.1945 38.6374 25.2856 38.9112C25.3661 39.146 25.5133 39.3521 25.7093 39.5043C25.9062 39.6601 26.1887 39.7377 26.5568 39.7373C26.8956 39.7373 27.1638 39.6674 27.3615 39.5258C27.5632 39.3791 27.7119 39.171 27.7852 38.9326C27.8753 38.6506 27.9321 38.359 27.9546 38.0637C27.9823 37.7397 27.9964 37.3938 27.9968 37.0261V30.7978C27.6295 30.9657 27.2624 31.121 26.8956 31.2638C26.5542 31.4157 26.1997 31.5362 25.8365 31.6239C25.4627 31.7201 25.0785 31.7698 24.6925 31.7719C24.308 31.7672 23.9248 31.725 23.5485 31.6459C23.1222 31.56 22.7183 31.3868 22.3622 31.1372C21.995 30.8853 21.6843 30.5254 21.4304 30.0574C21.1764 29.5894 21.0492 28.9891 21.0488 28.2566V18.3425C21.0488 16.4221 21.5362 15.0663 22.5108 14.2751C23.4855 13.4838 24.8342 13.0884 26.5568 13.0889C27.3351 13.0808 28.1112 13.1735 28.8657 13.3646C29.557 13.5485 30.1359 13.8591 30.6022 14.2965C31.0685 14.7339 31.4287 15.3129 31.6826 16.0336C31.937 16.7531 32.0642 17.6497 32.0642 18.7234V38.0845C32.0642 39.2149 31.937 40.1187 31.6826 40.7957C31.4283 41.4728 31.0612 42.0025 30.5814 42.3849C30.1012 42.766 29.5222 43.0202 28.8443 43.1474C28.1033 43.2794 27.3517 43.3426 26.599 43.3363C25.8332 43.3424 25.0681 43.2857 24.3116 43.1669C23.6726 43.0709 23.068 42.8161 22.553 42.4258C22.0585 42.0443 21.6843 41.5076 21.4304 40.8159C21.1764 40.1241 21.0492 39.2132 21.0488 38.0833V34.738H25.1162V37.0255ZM27.9968 18.9778C27.9968 18.6672 27.9899 18.3494 27.976 18.0245C27.9677 17.7297 27.9185 17.4375 27.8299 17.1563C27.7503 16.9092 27.6036 16.689 27.4062 16.5203C27.2085 16.3524 26.9262 16.2685 26.5593 16.2685C26.1635 16.2685 25.867 16.3524 25.6697 16.5203C25.4723 16.689 25.3256 16.9092 25.2459 17.1563C25.1575 17.437 25.115 17.7302 25.12 18.0245V26.9023C25.12 27.2133 25.2189 27.5592 25.4166 27.9399C25.6143 28.3207 26.038 28.5114 26.6878 28.5123C27.0265 28.5123 27.4501 28.4283 27.9584 28.2604L27.9968 18.9778Z" fill="black"></path> <path d="M42.5277 21.901C42.9349 21.8987 43.3407 21.9485 43.7353 22.0489C44.1194 22.1496 44.4748 22.3382 44.7735 22.5998C45.1029 22.896 45.3569 23.2664 45.5146 23.6803C45.6976 24.1324 45.7896 24.7255 45.7904 25.4596V37.449C45.7904 38.7196 45.642 39.7505 45.3453 40.5418C45.0485 41.333 44.6459 41.9402 44.1376 42.3633C43.6306 42.7866 43.0266 43.0777 42.3797 43.2108C41.6899 43.3541 40.987 43.425 40.2824 43.4223C39.5008 43.4281 38.7205 43.3573 37.9528 43.2108C37.2836 43.087 36.6569 42.7954 36.1313 42.3633C35.6225 41.9393 35.234 41.3391 34.9658 40.5625C34.6976 39.786 34.5635 38.7622 34.5635 37.4912V34.9916H38.8003V36.5594C38.8003 37.4635 38.8632 38.2048 38.9891 38.7832C39.1151 39.3616 39.5457 39.6513 40.2811 39.6521C40.6765 39.6521 40.9655 39.5747 41.15 39.4191C41.3434 39.2511 41.4844 39.031 41.5561 38.7851C41.6472 38.4687 41.6897 38.1402 41.6821 37.8111V26.8152C41.6821 26.7025 41.6745 26.5545 41.6607 26.3707C41.6473 26.1897 41.5891 26.0149 41.4913 25.862C41.3851 25.7007 41.2391 25.5695 41.0675 25.481C40.8837 25.3822 40.623 25.3746 40.2837 25.4596C39.8307 25.573 39.4784 25.9048 39.2265 26.4551C38.9696 27.0203 38.8396 27.6349 38.8456 28.2558H34.5641V13.4702H45.7904V17.7914H38.8015V25.0781L39.0974 25.0359C39.1541 25.0082 39.2038 24.8313 39.246 24.5064C39.3056 24.1326 39.4348 23.7734 39.627 23.4473C39.8389 23.0658 40.1638 22.7128 40.6016 22.3883C41.0394 22.0638 41.6819 21.9014 42.5289 21.901" fill="black"></path> <path d="M55.2822 19.1047C55.2822 18.3706 55.2046 17.8127 55.0493 17.4311C54.894 17.0496 54.4914 16.859 53.8416 16.8594C53.191 16.8594 52.7885 17.0571 52.634 17.4526C52.4795 17.848 52.4019 18.3987 52.401 19.1047V25.4595L53.5029 24.9508C53.8416 24.8383 54.2016 24.7334 54.5827 24.636C54.9491 24.539 55.3263 24.4891 55.7053 24.4874C56.0899 24.4921 56.473 24.5343 56.8494 24.6133C57.2749 24.6998 57.6781 24.873 58.0337 25.1221C58.4248 25.4041 58.744 25.7742 58.9656 26.2025C59.2199 26.6684 59.3471 27.2687 59.3471 28.0033V37.4911C59.3471 39.7225 58.8881 41.2689 57.9701 42.1303C57.0521 42.9916 55.7318 43.4223 54.0091 43.4223C53.2275 43.428 52.4473 43.3571 51.6795 43.2107C51.0157 43.0897 50.395 42.7976 49.8787 42.3632C49.3847 41.9393 49.0036 41.339 48.7353 40.5625C48.4671 39.7859 48.333 38.7622 48.333 37.4911V18.215C48.333 16.3505 48.8342 15.0302 49.8366 14.254C50.8389 13.4779 52.1876 13.1178 53.8826 13.1736C55.5775 13.2021 56.9121 13.5833 57.8864 14.317C58.8606 15.0507 59.3478 16.3501 59.3478 18.215V21.5615H55.2822V19.1047ZM52.3992 36.5184C52.3992 36.9704 52.4063 37.4013 52.4206 37.811C52.4268 38.1687 52.4765 38.5243 52.5685 38.87C52.639 39.1443 52.7949 39.3891 53.0137 39.5689C53.2235 39.7368 53.513 39.8208 53.8819 39.8208C54.2773 39.8208 54.5668 39.7368 54.7502 39.5689C54.9467 39.3778 55.0863 39.1359 55.1532 38.87C55.2435 38.5245 55.2858 38.1681 55.2791 37.811V29.357C55.2791 29.0468 55.1802 28.7009 54.9825 28.3193C54.7848 27.9378 54.3611 27.747 53.7113 27.747C53.3726 27.747 52.9488 27.8309 52.4401 27.9988L52.3992 36.5184Z" fill="black"></path> </g> </g> </g> <defs> <clipPath id="clip0_42_53"> <rect width="68" height="68" fill="white"></rect> </clipPath> </defs> </svg>